<?xml version="1.0" encoding="utf-8"?>
<!-- Generator: Adobe Illustrator 29.1.0, SVG Export Plug-In . SVG Version: 9.03 Build 55587)  -->
<svg version="1.0" id="Camada_1" xmlns="http://www.w3.org/2000/svg" xmlns:xlink="http://www.w3.org/1999/xlink" x="0px" y="0px"
	 viewBox="0 0 80 15" style="enable-background:new 0 0 80 15;" xml:space="preserve">
<style type="text/css">
	.st0{fill:#FFFFFF;}
	.st1{fill:url(#SVGID_1_);}
	.st2{fill:url(#SVGID_00000152969178346474248710000008970109048703024006_);}
	.st3{fill:url(#SVGID_00000079471631257729163750000009525458191957018519_);}
</style>
<g>
	<path class="st0" d="M3.5,11.9c-0.3,0-0.7,0-1-0.1c-0.3-0.1-0.7-0.1-1-0.2c-0.3-0.1-0.6-0.2-0.8-0.4c-0.2-0.1-0.3-0.2-0.4-0.4
		c-0.1-0.2-0.1-0.3-0.1-0.5S0.3,10,0.4,9.9c0.1-0.1,0.2-0.2,0.4-0.2c0.2,0,0.3,0,0.5,0.1C1.6,10,2,10.1,2.4,10.2s0.8,0.1,1.2,0.1
		c0.6,0,1-0.1,1.2-0.3s0.4-0.4,0.4-0.7c0-0.2-0.1-0.4-0.3-0.6C4.7,8.7,4.4,8.6,4,8.5L2.6,8.2C1.8,8,1.3,7.7,0.9,7.4
		C0.5,7,0.3,6.5,0.3,5.8c0-0.4,0.1-0.8,0.3-1.1C0.8,4.4,1,4.1,1.3,3.9C1.6,3.6,2,3.5,2.4,3.3s0.9-0.2,1.4-0.2c0.4,0,0.9,0.1,1.3,0.2
		c0.4,0.1,0.8,0.3,1.1,0.5C6.4,3.9,6.5,4,6.6,4.1c0.1,0.1,0.1,0.3,0.1,0.4c0,0.1-0.1,0.3-0.2,0.4C6.3,5.1,6.2,5.2,6.1,5.2
		c-0.2,0-0.3,0-0.6-0.1C5.2,4.9,5,4.8,4.7,4.8C4.4,4.7,4.1,4.7,3.8,4.7c-0.3,0-0.6,0-0.9,0.1C2.7,4.9,2.5,5,2.4,5.2
		C2.2,5.4,2.2,5.5,2.2,5.7c0,0.2,0.1,0.4,0.3,0.6s0.5,0.3,0.9,0.3l1.4,0.3C5.4,7.1,6,7.4,6.4,7.8S7,8.6,7,9.2c0,0.4-0.1,0.8-0.2,1.1
		c-0.2,0.3-0.4,0.6-0.7,0.8S5.4,11.6,5,11.7C4.5,11.8,4.1,11.9,3.5,11.9z"/>
	<path class="st0" d="M9.1,11.8c-0.3,0-0.5-0.1-0.7-0.3s-0.2-0.4-0.2-0.7V4.1c0-0.3,0.1-0.5,0.2-0.7s0.4-0.3,0.7-0.3
		c0.3,0,0.5,0.1,0.7,0.3c0.2,0.2,0.2,0.4,0.2,0.7v6.8c0,0.3-0.1,0.5-0.2,0.7C9.7,11.8,9.4,11.8,9.1,11.8z"/>
	<path class="st0" d="M16,11.9c-1,0-1.8-0.2-2.4-0.5c-0.7-0.4-1.2-0.9-1.5-1.5c-0.3-0.6-0.5-1.4-0.5-2.3c0-0.7,0.1-1.3,0.3-1.8
		c0.2-0.5,0.5-1,0.9-1.4c0.4-0.4,0.9-0.7,1.4-0.9c0.6-0.2,1.2-0.3,1.9-0.3c0.4,0,0.9,0,1.3,0.1c0.4,0.1,0.8,0.3,1.2,0.5
		c0.2,0.1,0.3,0.2,0.3,0.4c0.1,0.1,0.1,0.3,0,0.5c0,0.2-0.1,0.3-0.2,0.4c-0.1,0.1-0.2,0.2-0.4,0.2c-0.2,0-0.3,0-0.5-0.1
		C17.6,5,17.3,4.9,17,4.9c-0.3-0.1-0.6-0.1-1-0.1c-0.6,0-1,0.1-1.4,0.3S13.9,5.6,13.7,6c-0.2,0.4-0.3,0.9-0.3,1.5
		c0,0.9,0.2,1.6,0.7,2.1c0.4,0.5,1.1,0.7,1.9,0.7c0.3,0,0.6,0,0.9-0.1c0.3-0.1,0.6-0.1,0.9-0.2l-0.3,0.8V8.4h-1.1
		c-0.2,0-0.4-0.1-0.6-0.2s-0.2-0.3-0.2-0.5c0-0.2,0.1-0.4,0.2-0.5c0.1-0.1,0.3-0.2,0.6-0.2h1.9c0.2,0,0.4,0.1,0.5,0.2S19,7.6,19,7.8
		v2.8c0,0.2,0,0.4-0.1,0.5c-0.1,0.1-0.2,0.2-0.4,0.3c-0.4,0.1-0.8,0.2-1.2,0.3C16.8,11.8,16.4,11.9,16,11.9z"/>
	<path class="st0" d="M20.9,11.8c-0.2,0-0.4-0.1-0.5-0.2c-0.1-0.1-0.2-0.2-0.3-0.4c0-0.2,0-0.4,0.1-0.6l3.1-6.7
		c0.1-0.3,0.3-0.5,0.5-0.6s0.4-0.2,0.6-0.2c0.2,0,0.4,0.1,0.6,0.2c0.2,0.1,0.3,0.3,0.4,0.6l3.1,6.7c0.1,0.2,0.1,0.4,0.1,0.6
		c0,0.2-0.1,0.3-0.2,0.4c-0.1,0.1-0.3,0.1-0.5,0.1c-0.3,0-0.5-0.1-0.6-0.2c-0.1-0.1-0.3-0.3-0.4-0.6l-0.7-1.7l0.7,0.5h-5l0.7-0.5
		L21.9,11c-0.1,0.3-0.2,0.5-0.4,0.6C21.4,11.8,21.2,11.8,20.9,11.8z M24.3,5.2l-1.5,3.7l-0.3-0.5h3.8l-0.3,0.5L24.3,5.2L24.3,5.2z"
		/>
	<path class="st0" d="M30.1,9.2c-0.2,0-0.4-0.1-0.5-0.2c-0.1-0.1-0.2-0.3-0.2-0.5c0-0.2,0.1-0.4,0.2-0.5c0.1-0.1,0.3-0.2,0.5-0.2
		h2.5c0.2,0,0.4,0.1,0.5,0.2c0.1,0.1,0.2,0.3,0.2,0.5c0,0.2-0.1,0.4-0.2,0.5c-0.1,0.1-0.3,0.2-0.5,0.2H30.1z"/>
	<path class="st0" d="M35.6,11.8c-0.3,0-0.5-0.1-0.6-0.2c-0.1-0.2-0.2-0.4-0.2-0.7V4.1c0-0.3,0.1-0.5,0.2-0.7
		c0.1-0.2,0.3-0.2,0.6-0.2c0.2,0,0.4,0,0.5,0.1c0.1,0.1,0.2,0.2,0.4,0.4l4.2,5.4h-0.3V4c0-0.3,0.1-0.5,0.2-0.7
		c0.1-0.2,0.4-0.2,0.6-0.2c0.3,0,0.5,0.1,0.6,0.2C42,3.6,42.1,3.8,42.1,4V11c0,0.3-0.1,0.5-0.2,0.6c-0.1,0.2-0.3,0.2-0.6,0.2
		c-0.2,0-0.4,0-0.5-0.1s-0.3-0.2-0.4-0.4l-4.2-5.4h0.3v5c0,0.3-0.1,0.5-0.2,0.7C36.1,11.8,35.9,11.8,35.6,11.8z"/>
	<path class="st0" d="M47.7,11.9c-0.8,0-1.6-0.2-2.2-0.5c-0.6-0.4-1.1-0.9-1.5-1.5c-0.3-0.7-0.5-1.4-0.5-2.3c0-0.7,0.1-1.3,0.3-1.8
		c0.2-0.5,0.5-1,0.8-1.4s0.8-0.7,1.3-0.9c0.5-0.2,1.1-0.3,1.7-0.3c0.8,0,1.6,0.2,2.2,0.5c0.6,0.4,1.1,0.9,1.5,1.5
		c0.3,0.7,0.5,1.4,0.5,2.3c0,0.7-0.1,1.3-0.3,1.8c-0.2,0.5-0.5,1-0.9,1.4c-0.4,0.4-0.8,0.7-1.3,0.9C48.9,11.8,48.4,11.9,47.7,11.9z
		 M47.7,10.3c0.5,0,0.9-0.1,1.2-0.3c0.3-0.2,0.6-0.5,0.8-1C49.9,8.6,50,8.1,50,7.5c0-0.9-0.2-1.6-0.6-2C49,5,48.4,4.7,47.7,4.7
		c-0.5,0-0.9,0.1-1.2,0.3c-0.3,0.2-0.6,0.5-0.8,0.9c-0.2,0.4-0.3,0.9-0.3,1.5c0,0.9,0.2,1.6,0.6,2C46.5,10,47,10.3,47.7,10.3z"/>
	<path class="st0" d="M56.4,11.9c-0.3,0-0.7,0-1-0.1c-0.3-0.1-0.7-0.1-1-0.2c-0.3-0.1-0.6-0.2-0.8-0.4c-0.2-0.1-0.3-0.2-0.4-0.4
		c-0.1-0.2-0.1-0.3-0.1-0.5s0.1-0.3,0.2-0.4c0.1-0.1,0.2-0.2,0.4-0.2c0.2,0,0.3,0,0.5,0.1c0.3,0.2,0.7,0.3,1.1,0.4s0.8,0.1,1.2,0.1
		c0.6,0,1-0.1,1.2-0.3S58,9.6,58,9.4c0-0.2-0.1-0.4-0.3-0.6c-0.2-0.1-0.5-0.3-0.9-0.3l-1.4-0.3c-0.8-0.2-1.3-0.4-1.7-0.8
		c-0.4-0.4-0.6-0.9-0.6-1.5c0-0.4,0.1-0.8,0.3-1.1c0.2-0.3,0.4-0.6,0.7-0.9c0.3-0.2,0.7-0.4,1.1-0.6s0.9-0.2,1.4-0.2
		c0.4,0,0.9,0.1,1.3,0.2c0.4,0.1,0.8,0.3,1.1,0.5c0.2,0.1,0.3,0.2,0.3,0.4c0.1,0.1,0.1,0.3,0.1,0.4c0,0.1-0.1,0.3-0.2,0.4
		c-0.1,0.1-0.2,0.2-0.4,0.2c-0.2,0-0.3,0-0.6-0.1c-0.3-0.1-0.5-0.2-0.8-0.3c-0.3-0.1-0.6-0.1-0.9-0.1c-0.3,0-0.6,0-0.9,0.1
		c-0.2,0.1-0.4,0.2-0.5,0.4C55.1,5.4,55,5.5,55,5.7c0,0.2,0.1,0.4,0.3,0.6s0.5,0.3,0.9,0.3l1.4,0.3c0.8,0.2,1.4,0.4,1.8,0.8
		s0.6,0.9,0.6,1.5c0,0.4-0.1,0.8-0.2,1.1c-0.2,0.3-0.4,0.6-0.7,0.8s-0.7,0.4-1.1,0.5C57.4,11.8,56.9,11.9,56.4,11.9z"/>
</g>
<g>
	<g>
		<linearGradient id="SVGID_1_" gradientUnits="userSpaceOnUse" x1="72.5563" y1="14.7377" x2="72.5563" y2="0.2623">
			<stop  offset="0.25" style="stop-color:#FD9B26"/>
			<stop  offset="0.8" style="stop-color:#FC541A"/>
		</linearGradient>
		<path class="st1" d="M79.8,4.5c0-0.8-0.2-1.3-0.3-1.8c-0.2-0.5-0.4-0.9-0.8-1.3c-0.4-0.4-0.8-0.6-1.3-0.8c-0.5-0.2-1-0.3-1.8-0.3
			c-0.8,0-1,0-3,0c-2,0-2.2,0-3,0c-0.8,0-1.3,0.2-1.8,0.3c-0.5,0.2-0.9,0.4-1.3,0.8c-0.4,0.4-0.6,0.8-0.8,1.3
			c-0.2,0.5-0.3,1-0.3,1.8c0,0.8,0,1,0,3s0,2.2,0,3c0,0.8,0.2,1.3,0.3,1.8c0.2,0.5,0.4,0.9,0.8,1.3c0.4,0.4,0.8,0.6,1.3,0.8
			c0.5,0.2,1,0.3,1.8,0.3c0.8,0,1,0,3,0c2,0,2.2,0,3,0c0.8,0,1.3-0.2,1.8-0.3c0.5-0.2,0.9-0.4,1.3-0.8c0.4-0.4,0.6-0.8,0.8-1.3
			c0.2-0.5,0.3-1,0.3-1.8c0-0.8,0-1,0-3S79.8,5.3,79.8,4.5z M78.4,10.4c0,0.7-0.2,1.1-0.2,1.3c-0.1,0.3-0.3,0.6-0.5,0.8
			c-0.3,0.3-0.5,0.4-0.8,0.5c-0.3,0.1-0.6,0.2-1.3,0.2c-0.8,0-1,0-2.9,0c-1.9,0-2.2,0-2.9,0c-0.7,0-1.1-0.2-1.3-0.2
			c-0.3-0.1-0.6-0.3-0.8-0.5c-0.3-0.3-0.4-0.5-0.5-0.8c-0.1-0.3-0.2-0.6-0.2-1.3c0-0.8,0-1,0-2.9s0-2.2,0-2.9c0-0.7,0.2-1.1,0.2-1.3
			c0.1-0.3,0.3-0.6,0.5-0.8c0.3-0.3,0.5-0.4,0.8-0.5c0.3-0.1,0.6-0.2,1.3-0.2c0.8,0,1,0,2.9,0c1.9,0,2.2,0,2.9,0
			c0.7,0,1.1,0.2,1.3,0.2c0.3,0.1,0.6,0.3,0.8,0.5c0.3,0.3,0.4,0.5,0.5,0.8c0.1,0.3,0.2,0.6,0.2,1.3c0,0.8,0,1,0,2.9
			S78.5,9.7,78.4,10.4z"/>
		
			<linearGradient id="SVGID_00000037692586107594102240000002155992160378349186_" gradientUnits="userSpaceOnUse" x1="72.5563" y1="14.7377" x2="72.5563" y2="0.2623">
			<stop  offset="0.25" style="stop-color:#FD9B26"/>
			<stop  offset="0.8" style="stop-color:#FC541A"/>
		</linearGradient>
		<path style="fill:url(#SVGID_00000037692586107594102240000002155992160378349186_);" d="M72.6,3.8c-2.1,0-3.7,1.7-3.7,3.7
			c0,2.1,1.7,3.7,3.7,3.7c2.1,0,3.7-1.7,3.7-3.7C76.3,5.4,74.6,3.8,72.6,3.8z M72.6,9.9c-1.3,0-2.4-1.1-2.4-2.4
			c0-1.3,1.1-2.4,2.4-2.4c1.3,0,2.4,1.1,2.4,2.4C75,8.8,73.9,9.9,72.6,9.9z"/>
		
			<linearGradient id="SVGID_00000000199531724835101660000017526996684983775922_" gradientUnits="userSpaceOnUse" x1="72.5563" y1="14.7377" x2="72.5563" y2="0.2623">
			<stop  offset="0.25" style="stop-color:#FD9B26"/>
			<stop  offset="0.8" style="stop-color:#FC541A"/>
		</linearGradient>
		<path style="fill:url(#SVGID_00000000199531724835101660000017526996684983775922_);" d="M76.4,2.8c-0.5,0-0.9,0.4-0.9,0.9
			c0,0.5,0.4,0.9,0.9,0.9c0.5,0,0.9-0.4,0.9-0.9C77.3,3.2,76.9,2.8,76.4,2.8z"/>
	</g>
</g>
</svg>
